<?xml version="1.0" encoding="utf-8"?>
<!-- Generator: Adobe Illustrator 25.2.3, SVG Export Plug-In . SVG Version: 6.00 Build 0)  -->
<svg version="1.1" id="Layer_1" xmlns="http://www.w3.org/2000/svg" xmlns:xlink="http://www.w3.org/1999/xlink" x="0px" y="0px"
	 viewBox="0 0 502 383.5" style="enable-background:new 0 0 502 383.5;" xml:space="preserve">
<path d="M320.6,207.3c28.8,0,45.2,7.8,50.4,22.1c4.5-6.4,13.3-23.1,13.3-38.8c0-18.1-10.5-31.1-33.3-52.8
	c-22.8-21.6-79.2-66.3-103.4-82c13.1,24,21.2,50.2,21.2,77.5c0,27.3-7.1,51.6-19,73.7c3.6-11.4,7.1-30.4,7.1-51.6
	c0-21.2-1.7-26.6-1.7-26.6l-61.6-40.7c7.6,16.4,14.3,37.8,14.3,64.4c0,26.6-7.4,49.7-14.5,66.1c2.4-10.7,5.2-27.3,5.2-45.6
	s-1.7-22.6-1.7-22.6l-58-30.7c7.1,12.4,13.8,32.6,13.8,56.8c0,24.3-7.8,57.1-35.4,88.2C241.2,213,291.8,207.3,320.6,207.3z"/>
<path d="M18.5,297.1c-4.4,4-14,13.6-14,30.8c0,17.2,8.6,26.2,15,31.4c6.4,5.2,17.2,9.4,28.6,9.4s23.2-3.6,29.8-8.2v-21h-2.8
	c-2.6,10.8-9.6,24-24.6,24c-15,0-29.6-14.8-29.6-35.8c0-21,14.8-35,29.8-35c15,0,22.6,13.8,24.4,23.8h2.8v-21
	c-5.8-3.2-15.2-8-29.6-8S22.9,293.1,18.5,297.1z"/>
<path d="M166.3,125.3c5.7,1,21.4,4.5,29,7.6c-1.4-9-6.4-24-10-31.6l-34-18.5C158.2,92,167,108.1,167,120
	C167,122.2,166.3,125.3,166.3,125.3z"/>
<path d="M220.7,96.5c8.1,2.1,23.5,7.6,31.9,11.9c-1.7-9.7-5.5-24-11.2-36.9L205,47.7c10.9,18.5,16.2,33.8,16.2,42.3
	C221.2,92.4,220.7,96.5,220.7,96.5z"/>
<path d="M342,115.3c2.1-2.9,4-8.8,4-14.7c0-17.8-15.7-40.7-34.2-57.3c-18.5-16.6-38.8-30.9-49-36.1c7.1,14.7,17.8,38.5,17.8,61.3
	C298,74.4,332.7,88.6,342,115.3z"/>
<path d="M482.7,358.9c-5.2-7.8-14-23.6-14-23.6c-4.6-0.2-6.8-1.6-9-3.4c4.6,0,10.4-2,13.4-4.2c3-2.2,7.2-7.6,7.2-16.8
	c0-9.2-3.6-14.8-8.2-17.6c-4.6-2.8-10.4-4-15.8-4h-39.8c0,0,6.8,3.8,8.4,6.6v64.2c-1.6,2.8-8.4,6.6-8.4,6.6h31.7
	c0,0-6.8-3.8-8.4-6.6v-64.2c0.5-0.8,1.4-1.7,2.5-2.6h8.6c6,0,9,3.4,10.2,5c1.2,1.6,4,6,4,13.2s-3.6,12.4-5,13.8
	c-1.4,1.4-4,2.8-8.4,2.8h-5.2c0,0,13.4,22.8,18,30.4c4.6,7.6,9.6,12.6,24.8,16h8.2C492.3,371.1,487.9,366.7,482.7,358.9z"/>
<path d="M152.9,297.7c-5.6-5.2-13-10.2-27.2-10.2c-14.2,0-22.8,5.4-27.8,10.6c-5,5.2-12.2,14-12.2,29.8s7,24.8,12.4,30.2
	c5.4,5.4,15.4,10.6,27.2,10.6c11.8,0,22.2-4.6,28.8-11.6c6.6-7,11.6-14.8,11.6-29.6S158.5,302.9,152.9,297.7z M142.9,353.1
	c-4,5.8-9.6,11-17.2,11c-7.6,0-13-5.2-17.2-11.6c-4.2-6.4-6.6-15.4-6.6-25.2s3-18,6.2-23.6c3.2-5.6,9.6-11.4,17.6-11.4
	c8,0,13,4.6,17,9.8c4,5.2,6.6,16,6.6,25.6C149.3,337.3,146.9,347.3,142.9,353.1z"/>
<path d="M369.9,360.5c-1.2-2.8-28.6-71.2-28.6-71.2h-9.6c0,0-27,67.2-28.4,70.8c-1.4,3.6-8.4,6.6-8.4,6.6h24.8c0,0-8-4.2-8-7
	l7.1-17.8h26.9l6.9,17.2c0,3-9,7.6-9,7.6h34.4C377.9,366.7,371.1,363.3,369.9,360.5z M321.1,336.1l11.1-27.9l11.1,27.9H321.1z"/>
<path d="M412,289.3h-31.7c0,0,6.8,3.8,8.4,6.6v64.2c-1.6,2.8-8.4,6.6-8.4,6.6H412c0,0-6.8-3.8-8.4-6.6v-64.2
	C405.2,293.1,412,289.3,412,289.3z"/>
<path d="M287.1,325.7c-5.2-3.4-16.6-6.8-21.4-9.6c-4.8-2.8-8-6.6-8-11.6s3.4-8.6,5.6-9.8c2.2-1.2,4.4-2.6,9-2.6
	c4.6,0,8.6,1.4,11.8,5.2c3.2,3.8,5.6,8,6.4,13h2.6v-17.6c-4.8-2.6-11.8-5.2-20.8-5.2c-9,0-15.6,2.2-20,6.6c-4.4,4.4-7,9.2-7,16.2
	s2.6,13,7.8,17.2c5.2,4.2,15.2,7.8,20.4,10.8c5.2,3,8.6,6,8.6,12.2c0,6.2-2.6,8.4-3.6,9.6c-1,1.2-5.6,3.4-9.8,3.4s-8.8-1.4-13.2-5.6
	c-4.4-4.2-6.6-9-8.4-14.6h-2.4v19.2c4,2.4,14.4,6.2,23,6.2s16.2-2.6,20.8-6.6c4.6-4,8.2-9.8,8.2-18.4
	C296.7,335.1,292.3,329.1,287.1,325.7z"/>
<path d="M231.5,358.9c-5.2-7.8-14-23.6-14-23.6c-4.6-0.2-6.8-1.6-9-3.4c4.6,0,10.4-2,13.4-4.2c3-2.2,7.2-7.6,7.2-16.8
	c0-9.2-3.6-14.8-8.2-17.6c-4.6-2.8-10.4-4-15.8-4h-39.8c0,0,6.8,3.8,8.4,6.6v64.2c-1.6,2.8-8.4,6.6-8.4,6.6H197c0,0-6.8-3.8-8.4-6.6
	v-64.2c0.5-0.8,1.4-1.7,2.5-2.6h8.6c6,0,9,3.4,10.2,5c1.2,1.6,4,6,4,13.2s-3.6,12.4-5,13.8s-4,2.8-8.4,2.8h-5.2
	c0,0,13.4,22.8,18,30.4c4.6,7.6,9.6,12.6,24.8,16h8.2C241.1,371.1,236.7,366.7,231.5,358.9z"/>
</svg>
