<?xml version="1.0" encoding="utf-8"?>
<!-- Generator: Adobe Illustrator 25.2.3, SVG Export Plug-In . SVG Version: 6.00 Build 0)  -->
<svg version="1.1" id="layer" xmlns="http://www.w3.org/2000/svg" xmlns:xlink="http://www.w3.org/1999/xlink" x="0px" y="0px"
	 viewBox="0 0 576 87" style="enable-background:new 0 0 576 87;" xml:space="preserve">
<rect x="94.1" y="4.7" width="20.7" height="77.5"/>
<path d="M237,4.9h25.4l29.9,77.8h-22.7l-5.8-16.6h-29.1l-6.2,16.6h-21.1L237,4.9 M249.6,21h-0.2l-10,30.3h19.5L249.6,21z"/>
<path d="M300.8,4.9h35.7c14.6,0,25.3,6.4,25.3,19.7c0,9.8-5,15.3-13.6,18.2v0.3c10.4,2.1,15.7,7.7,15.7,17.2
	c0,18.6-16.3,22.5-30.3,22.5h-32.7V4.9 M321.5,68h6.1c7.5,0,15.4-1.1,15.4-9c0-8.5-8.1-9.3-15.2-9.3h-6.3V68 M321.5,35.7h5.8
	c6.8,0,13.7-1.7,13.7-8.3c0-7.1-6.6-7.8-13.5-7.8h-6V35.7z"/>
<polyline points="392.6,53.4 363.7,4.9 387.6,4.9 402.9,36.2 417.9,4.9 441.8,4.9 413.3,53.4 413.3,82.7 392.6,82.7 392.6,53.4 "/>
<polyline points="466.8,20.3 447.6,20.3 447.6,4.9 506.7,4.9 506.7,20.3 487.5,20.3 487.5,82.7 466.8,82.7 466.8,20.3 "/>
<polyline points="515.6,4.9 570.5,4.9 570.5,19.7 536.3,19.7 536.3,35.7 568.6,35.7 568.6,50.4 536.3,50.4 536.3,68 571.7,68 
	571.7,82.7 515.6,82.7 515.6,4.9 "/>
<path d="M47.9,20.6c-13.7,1.1-21.3,10.2-21.3,21.9c0,11.4,10.6,21,20.7,21h2.2h3.8c0,0,2.5,0,2.5-2.4V36.7h21.3
	c0,13.7-0.1,44.7-0.1,44.7s-20.9,0-33.1,0c-22.9,0-39.3-19-39.3-38.8c0-21.5,17.8-39.4,40-38.6l31.7,0.1v16.6H47.9"/>
<path d="M169.6,20.6c-13.8,1.1-21.3,10.2-21.3,21.9c0,11.4,10.5,21,20.8,21h2.2h3.7c0,0,2.5,0,2.5-2.4V36.7h21.2
	c0,13.7,0,44.7,0,44.7s-21,0-33.1,0c-22.9,0-39.2-19-39.2-38.8c0-21.5,17.7-39.4,40-38.6L198,4v16.6H169.6"/>
<polyline points="584.2,7.3 580.5,7.3 580.5,5.8 589.8,5.8 589.8,7.3 586,7.3 586,17.8 584.2,17.8 584.2,7.3 "/>
<polyline points="591.5,5.8 594.3,5.8 598.1,15.8 601.8,5.8 604.7,5.8 604.7,17.8 602.9,17.8 602.9,7.4 602.9,7.4 598.9,17.8 
	597.2,17.8 593.3,7.4 593.2,7.4 593.2,17.8 591.5,17.8 591.5,5.8 "/>
</svg>
