<?xml version="1.0" encoding="utf-8"?>
<!-- Generator: Adobe Illustrator 25.2.3, SVG Export Plug-In . SVG Version: 6.00 Build 0)  -->
<svg version="1.1" id="Layer_1" xmlns="http://www.w3.org/2000/svg" xmlns:xlink="http://www.w3.org/1999/xlink" x="0px" y="0px"
	 viewBox="0 0 902 251" style="enable-background:new 0 0 902 251;" xml:space="preserve">
<g>
	<polygon points="895.1,12.9 706.2,12.9 706.2,72.8 765.8,72.8 765.8,240.3 835.5,240.3 835.5,72.8 895.1,72.8 	"/>
	<polygon points="688.2,12.9 616.2,12.9 577,71.3 540.1,12.9 463.8,12.9 537.9,127.6 464.9,240.3 539.4,240.3 576,182.5 
		613.1,240.3 689.5,240.3 615,125.5 	"/>
	<polygon points="154.7,123.8 154.8,125.7 77.2,12.9 11.9,12.9 11.9,240.3 77.5,240.3 77.5,120.6 159.5,240.3 220.3,240.3 
		220.3,12.9 154.7,12.9 	"/>
	<polygon points="255.5,12.9 255.5,70.2 338.6,70.2 250.7,240.3 440.2,240.3 440.2,182.6 352.5,182.6 442.1,12.9 	"/>
</g>
</svg>
