<?xml version="1.0" encoding="utf-8"?>
<!-- Generator: Adobe Illustrator 25.2.3, SVG Export Plug-In . SVG Version: 6.00 Build 0)  -->
<svg version="1.1" id="Layer_1" xmlns="http://www.w3.org/2000/svg" xmlns:xlink="http://www.w3.org/1999/xlink" x="0px" y="0px"
	 viewBox="0 0 63.2 26.7" style="enable-background:new 0 0 63.2 26.7;" xml:space="preserve">
<style type="text/css">
	.st0{fill:#BB8545;}
	.st1{fill:#0065A5;}
	.st2{fill-rule:evenodd;clip-rule:evenodd;}
	.st3{fill-rule:evenodd;clip-rule:evenodd;fill:#1D1D1B;}
</style>
<g>
	<path class="st0" d="M-178.8,322.9c1.2-0.2,2.5-0.3,4-0.3c2.7,0,4.6,0.7,5.9,1.8c1.3,1.2,2.1,2.9,2.1,5.3s-0.8,4.3-2.1,5.7
		c-1.4,1.4-3.7,2.1-6.5,2.1c-1.4,0-2.5-0.1-3.4-0.2V322.9z M-176.9,335.9c0.5,0.1,1.2,0.1,1.9,0.1c4.1,0,6.2-2.3,6.2-6.2
		c0-3.5-1.9-5.6-5.9-5.6c-1,0-1.7,0.1-2.2,0.2V335.9z"/>
	<path class="st0" d="M-154.7,332c0,3.9-2.7,5.6-5.2,5.6c-2.8,0-5-2.1-5-5.4c0-3.5,2.3-5.6,5.2-5.6S-154.7,328.8-154.7,332z
		 M-163.1,332.1c0,2.3,1.3,4,3.2,4c1.8,0,3.2-1.7,3.2-4.1c0-1.8-0.9-4-3.2-4C-162.1,328.1-163.1,330.2-163.1,332.1z"/>
	<path class="st0" d="M-151.7,326.9l1.4,5.3c0.3,1.2,0.6,2.3,0.8,3.3h0.1c0.2-1.1,0.6-2.2,0.9-3.3l1.7-5.4h1.6l1.6,5.3
		c0.4,1.3,0.7,2.4,0.9,3.4h0.1c0.2-1.1,0.5-2.2,0.8-3.4l1.5-5.3h1.9l-3.4,10.5h-1.7l-1.6-5c-0.4-1.2-0.7-2.2-0.9-3.5l0,0
		c-0.3,1.3-0.6,2.3-1,3.5l-1.7,5h-1.7l-3.2-10.5h1.9V326.9z"/>
	<path class="st0" d="M-136.5,329.7c0-1.1,0-2-0.1-2.8h1.7l0.1,1.7l0,0c0.5-1,1.7-2,3.5-2c1.5,0,3.7,0.9,3.7,4.5v6.3h-1.9v-6.1
		c0-1.7-0.6-3.1-2.4-3.1c-1.2,0-2.2,0.9-2.6,2c-0.1,0.2-0.1,0.6-0.1,0.9v6.3h-1.9V329.7z"/>
	<path class="st0" d="M-124.4,321.9h1.9v15.4h-1.9V321.9z"/>
	<path class="st0" d="M-109.8,332c0,3.9-2.7,5.6-5.2,5.6c-2.8,0-5-2.1-5-5.4c0-3.5,2.3-5.6,5.2-5.6
		C-111.8,326.6-109.8,328.8-109.8,332z M-118.1,332.1c0,2.3,1.3,4,3.2,4c1.8,0,3.2-1.7,3.2-4.1c0-1.8-0.9-4-3.2-4
		C-117.1,328.1-118.1,330.2-118.1,332.1z"/>
	<path class="st0" d="M-100,334.9c0,0.9,0,1.8,0.2,2.5h-1.7l-0.2-1.3h-0.1c-0.6,0.8-1.7,1.6-3.2,1.6c-2.1,0-3.2-1.5-3.2-3
		c0-2.5,2.3-3.9,6.3-3.9v-0.2c0-0.8-0.2-2.4-2.4-2.4c-1,0-2,0.3-2.8,0.8l-0.4-1.3c0.9-0.5,2.2-0.9,3.5-0.9c3.2,0,4,2.2,4,4.3
		C-100,331.1-100,334.9-100,334.9z M-101.8,332c-2.1,0-4.5,0.3-4.5,2.4c0,1.3,0.8,1.8,1.8,1.8c1.4,0,2.3-0.9,2.6-1.8
		c0.1-0.2,0.1-0.4,0.1-0.6V332z"/>
	<path class="st0" d="M-87.8,321.9v12.7c0,0.9,0,2,0.1,2.7h-1.7l-0.1-1.8h-0.1c-0.6,1.2-1.8,2.1-3.5,2.1c-2.5,0-4.5-2.2-4.5-5.3
		c0-3.5,2.2-5.6,4.7-5.6c1.6,0,2.7,0.8,3.2,1.6l0,0V322h1.9V321.9z M-89.7,331.1c0-0.2,0-0.6-0.1-0.8c-0.3-1.2-1.3-2.2-2.8-2.2
		c-2,0-3.2,1.7-3.2,4c0,2.1,1.1,3.9,3.1,3.9c1.3,0,2.5-0.9,2.8-2.3c0.1-0.3,0.1-0.5,0.1-0.8L-89.7,331.1L-89.7,331.1z"/>
	<path class="st0" d="M-80.6,337.4v-1.2l1.5-1.5c3.6-3.4,5.3-5.3,5.3-7.4c0-1.4-0.7-2.8-2.8-2.8c-1.3,0-2.3,0.7-3,1.2l-0.6-1.3
		c1-0.8,2.4-1.4,4-1.4c3,0,4.3,2.1,4.3,4.1c0,2.6-1.9,4.7-4.9,7.6l-1.1,1l0,0h6.3v1.6L-80.6,337.4L-80.6,337.4z"/>
	<path class="st0" d="M-60.1,330.2c0,4.8-1.8,7.5-4.9,7.5c-2.8,0-4.6-2.6-4.7-7.3c0-4.8,2.1-7.3,4.9-7.3
		C-61.8,323-60.1,325.7-60.1,330.2z M-67.7,330.4c0,3.7,1.1,5.8,2.9,5.8c1.9,0,2.9-2.3,2.9-5.9c0-3.5-0.9-5.8-2.9-5.8
		C-66.5,324.5-67.7,326.5-67.7,330.4z"/>
	<path class="st0" d="M-48.9,330.2c0,4.8-1.8,7.5-4.9,7.5c-2.8,0-4.6-2.6-4.7-7.3c0-4.8,2.1-7.3,4.9-7.3
		C-50.6,323-48.9,325.7-48.9,330.2z M-56.6,330.4c0,3.7,1.1,5.8,2.9,5.8c1.9,0,2.9-2.3,2.9-5.9c0-3.5-0.9-5.8-2.9-5.8
		C-55.4,324.5-56.6,326.5-56.6,330.4z"/>
	<path class="st0" d="M-47.8,340.1c0.5-1.3,1.1-3.6,1.3-5.2l2.1-0.2c-0.5,1.8-1.5,4.3-2.1,5.3L-47.8,340.1z"/>
	<path class="st0" d="M-33.3,330.2c0,4.8-1.8,7.5-4.9,7.5c-2.8,0-4.6-2.6-4.7-7.3c0-4.8,2.1-7.3,4.9-7.3
		C-35,323-33.3,325.7-33.3,330.2z M-40.9,330.4c0,3.7,1.1,5.8,2.9,5.8c1.9,0,2.9-2.3,2.9-5.9c0-3.5-0.9-5.8-2.9-5.8
		C-39.7,324.5-40.9,326.5-40.9,330.4z"/>
	<path class="st0" d="M-22.1,330.2c0,4.8-1.8,7.5-4.9,7.5c-2.8,0-4.6-2.6-4.7-7.3c0-4.8,2.1-7.3,4.9-7.3
		C-23.8,323-22.1,325.7-22.1,330.2z M-29.8,330.4c0,3.7,1.1,5.8,2.9,5.8c1.9,0,2.9-2.3,2.9-5.9c0-3.5-0.9-5.8-2.9-5.8
		C-28.6,324.5-29.8,326.5-29.8,330.4z"/>
	<path class="st0" d="M-11,330.2c0,4.8-1.8,7.5-4.9,7.5c-2.8,0-4.6-2.6-4.7-7.3c0-4.8,2.1-7.3,4.9-7.3C-12.7,323-11,325.7-11,330.2z
		 M-18.6,330.4c0,3.7,1.1,5.8,2.9,5.8c1.9,0,2.9-2.3,2.9-5.9c0-3.5-0.9-5.8-2.9-5.8C-17.4,324.5-18.6,326.5-18.6,330.4z"/>
	<path class="st0" d="M-3,325.8v5.1h4.9v1.3H-3v5.1h-1.4v-5.1h-4.9v-1.3h4.9v-5.1H-3z"/>
	<path class="st0" d="M8.9,321.9h1.9v6.6l0,0c0.7-1.2,1.9-1.9,3.6-1.9c2.6,0,4.5,2.2,4.5,5.3c0,3.8-2.4,5.6-4.7,5.6
		c-1.5,0-2.7-0.6-3.5-2l0,0l-0.1,1.7H8.8c0-0.7,0.1-1.8,0.1-2.7C8.9,334.5,8.9,321.9,8.9,321.9z M10.8,333.2c0,0.2,0,0.5,0.1,0.7
		c0.3,1.3,1.5,2.2,2.9,2.2c2,0,3.2-1.6,3.2-4c0-2.1-1.1-3.9-3.2-3.9c-1.3,0-2.5,0.9-2.9,2.3c-0.1,0.2-0.1,0.5-0.1,0.8
		C10.8,331.3,10.8,333.2,10.8,333.2z"/>
	<path class="st0" d="M21.3,330.1c0-1.2,0-2.3-0.1-3.3h1.7l0.1,2.1l0,0c0.5-1.4,1.7-2.3,2.9-2.3c0.2,0,0.3,0,0.5,0v1.8
		c-0.2,0-0.4,0-0.7,0c-1.3,0-2.3,1-2.6,2.4c0,0.3-0.1,0.6-0.1,0.9v5.6h-1.9v-7.2H21.3z"/>
	<path class="st0" d="M35.7,334.9c0,0.9,0,1.8,0.2,2.5h-1.7L34,336h-0.1c-0.6,0.8-1.7,1.6-3.2,1.6c-2.1,0-3.2-1.5-3.2-3
		c0-2.5,2.3-3.9,6.3-3.9v-0.2c0-0.8-0.2-2.4-2.4-2.4c-1,0-2,0.3-2.8,0.8l-0.4-1.3c0.9-0.5,2.2-0.9,3.5-0.9c3.2,0,4,2.2,4,4.3V334.9z
		 M33.8,332c-2.1,0-4.5,0.3-4.5,2.4c0,1.3,0.8,1.8,1.8,1.8c1.4,0,2.3-0.9,2.6-1.8c0.1-0.2,0.1-0.4,0.1-0.6
		C33.8,333.8,33.8,332,33.8,332z"/>
	<path class="st0" d="M38.8,329.7c0-1.1,0-2-0.1-2.8h1.7l0.1,1.7l0,0c0.5-1,1.7-2,3.5-2c1.5,0,3.7,0.9,3.7,4.5v6.3h-1.9v-6.1
		c0-1.7-0.6-3.1-2.4-3.1c-1.2,0-2.2,0.9-2.6,2c-0.1,0.2-0.1,0.6-0.1,0.9v6.3h-1.9V329.7z"/>
	<path class="st0" d="M59.9,321.9v12.7c0,0.9,0,2,0.1,2.7h-1.7l-0.1-1.8h-0.1c-0.6,1.2-1.8,2.1-3.5,2.1c-2.5,0-4.5-2.2-4.5-5.3
		c0-3.5,2.2-5.6,4.7-5.6c1.6,0,2.7,0.8,3.2,1.6l0,0V322h1.9V321.9z M58,331.1c0-0.2,0-0.6-0.1-0.8c-0.3-1.2-1.3-2.2-2.8-2.2
		c-2,0-3.2,1.7-3.2,4c0,2.1,1.1,3.9,3.1,3.9c1.3,0,2.5-0.9,2.8-2.3c0.1-0.3,0.1-0.5,0.1-0.8v-1.8H58z"/>
	<path class="st0" d="M67.7,321.9h1.9v15.4h-1.9V321.9z"/>
	<path class="st0" d="M82.3,332c0,3.9-2.7,5.6-5.2,5.6c-2.8,0-5-2.1-5-5.4c0-3.5,2.3-5.6,5.2-5.6C80.3,326.6,82.3,328.8,82.3,332z
		 M74,332.1c0,2.3,1.3,4,3.2,4c1.8,0,3.2-1.7,3.2-4.1c0-1.8-0.9-4-3.2-4C75,328.1,74,330.2,74,332.1z"/>
	<path class="st0" d="M93.8,335.8c0,2.4-0.5,3.9-1.5,4.8s-2.5,1.3-3.8,1.3s-2.7-0.3-3.5-0.9l0.5-1.5c0.7,0.5,1.8,0.8,3.1,0.8
		c2,0,3.4-1,3.4-3.7v-1.2l0,0c-0.6,1-1.7,1.8-3.3,1.8c-2.6,0-4.5-2.2-4.5-5.1c0-3.6,2.3-5.6,4.8-5.6c1.8,0,2.8,0.9,3.3,1.8l0,0
		l0.1-1.6h1.7c-0.1,0.7-0.1,1.6-0.1,2.9v6.2H93.8z M91.8,331c0-0.3,0-0.6-0.1-0.8c-0.3-1.1-1.3-2-2.7-2c-1.8,0-3.1,1.5-3.1,4
		c0,2.1,1.1,3.8,3.1,3.8c1.2,0,2.3-0.7,2.7-2c0.1-0.3,0.2-0.7,0.2-1L91.8,331L91.8,331z"/>
	<path class="st0" d="M106.4,332c0,3.9-2.7,5.6-5.2,5.6c-2.8,0-5-2.1-5-5.4c0-3.5,2.3-5.6,5.2-5.6
		C104.4,326.6,106.4,328.8,106.4,332z M98.1,332.1c0,2.3,1.3,4,3.2,4c1.8,0,3.2-1.7,3.2-4.1c0-1.8-0.9-4-3.2-4
		C99.1,328.1,98.1,330.2,98.1,332.1z"/>
	<path class="st0" d="M108.6,335.4c0.6,0.3,1.6,0.7,2.5,0.7c1.4,0,2-0.7,2-1.6s-0.5-1.4-1.9-1.9c-1.9-0.7-2.8-1.7-2.8-3
		c0-1.7,1.4-3.1,3.6-3.1c1.1,0,2,0.3,2.6,0.7l-0.5,1.4c-0.4-0.3-1.2-0.6-2.2-0.6c-1.1,0-1.7,0.7-1.7,1.4c0,0.9,0.6,1.3,2,1.8
		c1.8,0.7,2.8,1.6,2.8,3.2c0,1.9-1.5,3.2-3.9,3.2c-1.2,0-2.2-0.3-3-0.7L108.6,335.4z"/>
	<path class="st0" d="M124.2,323.9c0,0.7-0.5,1.2-1.2,1.2s-1.2-0.5-1.2-1.2s0.5-1.2,1.2-1.2C123.7,322.7,124.2,323.2,124.2,323.9z
		 M122.1,337.4v-10.5h1.9v10.5H122.1z"/>
	<path class="st0" d="M127.1,329.7c0-1.1,0-2-0.1-2.8h1.7l0.1,1.7l0,0c0.5-1,1.7-2,3.5-2c1.5,0,3.7,0.9,3.7,4.5v6.3h-1.9v-6.1
		c0-1.7-0.6-3.1-2.4-3.1c-1.2,0-2.2,0.9-2.6,2c-0.1,0.2-0.1,0.6-0.1,0.9v6.3h-1.9V329.7z"/>
	<path class="st0" d="M144.6,326.9l2.1,5.9c0.3,1,0.6,1.8,0.8,2.7h0.1c0.2-0.9,0.5-1.7,0.9-2.7l2-5.9h2l-4.1,10.5h-1.8l-4-10.5
		H144.6z"/>
	<path class="st0" d="M155.1,332.5c0,2.6,1.7,3.7,3.6,3.7c1.4,0,2.2-0.2,2.9-0.5l0.3,1.4c-0.7,0.3-1.8,0.7-3.5,0.7
		c-3.2,0-5.2-2.2-5.2-5.3c0-3.2,1.9-5.7,4.9-5.7c3.5,0,4.3,3,4.3,4.9c0,0.4,0,0.7-0.1,0.9h-7.2V332.5z M160.7,331.1
		c0-1.2-0.5-3.1-2.7-3.1c-2,0-2.8,1.8-2.9,3.1H160.7z"/>
	<path class="st0" d="M172.4,337c-0.5,0.2-1.6,0.6-3,0.6c-3.2,0-5.2-2.2-5.2-5.4c0-3.2,2.2-5.6,5.7-5.6c1.1,0,2.1,0.3,2.7,0.6
		l-0.4,1.5c-0.5-0.2-1.2-0.5-2.2-0.5c-2.4,0-3.7,1.8-3.7,4c0,2.4,1.6,3.9,3.7,3.9c1.1,0,1.8-0.3,2.3-0.5L172.4,337z"/>
	<path class="st0" d="M177.3,324.3v2.5h2.7v1.5h-2.7v5.7c0,1.3,0.4,2,1.4,2c0.5,0,0.8,0,1.1-0.1l0.1,1.5c-0.4,0.1-1,0.3-1.7,0.3
		c-0.9,0-1.6-0.3-2.1-0.8c-0.5-0.6-0.7-1.5-0.7-2.8v-5.7h-1.6v-1.5h1.6v-2L177.3,324.3z"/>
	<path class="st0" d="M191.5,332c0,3.9-2.7,5.6-5.2,5.6c-2.8,0-5-2.1-5-5.4c0-3.5,2.3-5.6,5.2-5.6
		C189.5,326.6,191.5,328.8,191.5,332z M183.2,332.1c0,2.3,1.3,4,3.2,4c1.8,0,3.2-1.7,3.2-4.1c0-1.8-0.9-4-3.2-4
		C184.2,328.1,183.2,330.2,183.2,332.1z"/>
	<path class="st0" d="M194,330.1c0-1.2,0-2.3-0.1-3.3h1.7l0.1,2.1h0.1c0.5-1.4,1.7-2.3,2.9-2.3c0.2,0,0.3,0,0.5,0v1.8
		c-0.2,0-0.4,0-0.7,0c-1.3,0-2.3,1-2.6,2.4c0,0.3-0.1,0.6-0.1,0.9v5.6H194V330.1z"/>
	<path class="st0" d="M205.9,337.4v-9.1h-1.5v-1.5h1.5v-0.5c0-1.5,0.3-2.8,1.2-3.7c0.7-0.7,1.7-1,2.6-1c0.7,0,1.3,0.2,1.6,0.3
		l-0.3,1.5c-0.3-0.1-0.7-0.2-1.2-0.2c-1.6,0-2,1.4-2,3v0.6h2.5v1.5h-2.5v9.1L205.9,337.4L205.9,337.4z"/>
	<path class="st0" d="M221.2,332c0,3.9-2.7,5.6-5.2,5.6c-2.8,0-5-2.1-5-5.4c0-3.5,2.3-5.6,5.2-5.6
		C219.2,326.6,221.2,328.8,221.2,332z M212.9,332.1c0,2.3,1.3,4,3.2,4c1.8,0,3.2-1.7,3.2-4.1c0-1.8-0.9-4-3.2-4
		C213.9,328.1,212.9,330.2,212.9,332.1z"/>
	<path class="st0" d="M223.7,330.1c0-1.2,0-2.3-0.1-3.3h1.7l0.1,2.1h0.1c0.5-1.4,1.7-2.3,2.9-2.3c0.2,0,0.3,0,0.5,0v1.8
		c-0.2,0-0.4,0-0.7,0c-1.3,0-2.3,1-2.6,2.4c0,0.3-0.1,0.6-0.1,0.9v5.6h-1.9v-7.2H223.7z"/>
	<path class="st0" d="M230.9,329.7c0-1.1,0-2-0.1-2.8h1.7l0.1,1.7h0.1c0.6-1,1.6-1.9,3.3-1.9c1.4,0,2.5,0.9,3,2.1l0,0
		c0.3-0.6,0.8-1,1.2-1.4c0.6-0.5,1.3-0.7,2.3-0.7c1.4,0,3.5,0.9,3.5,4.6v6.2h-2v-5.9c0-2-0.8-3.2-2.3-3.2c-1.1,0-1.9,0.8-2.3,1.7
		c-0.1,0.3-0.2,0.6-0.2,1v6.5h-1.9v-6.3c0-1.7-0.7-2.9-2.2-2.9c-1.2,0-2.1,1-2.4,1.9c-0.1,0.3-0.2,0.6-0.2,0.9v6.3h-1.9v-7.8H230.9z
		"/>
	<path class="st0" d="M256.4,334.9c0,0.9,0,1.8,0.2,2.5h-1.7l-0.2-1.3h-0.1c-0.6,0.8-1.7,1.6-3.2,1.6c-2.1,0-3.2-1.5-3.2-3
		c0-2.5,2.3-3.9,6.3-3.9v-0.2c0-0.8-0.2-2.4-2.4-2.4c-1,0-2,0.3-2.8,0.8l-0.4-1.3c0.9-0.5,2.2-0.9,3.5-0.9c3.2,0,4,2.2,4,4.3
		L256.4,334.9L256.4,334.9z M254.5,332c-2.1,0-4.5,0.3-4.5,2.4c0,1.3,0.8,1.8,1.8,1.8c1.4,0,2.3-0.9,2.6-1.8
		c0.1-0.2,0.1-0.4,0.1-0.6L254.5,332L254.5,332z"/>
	<path class="st0" d="M261.7,324.3v2.5h2.7v1.5h-2.7v5.7c0,1.3,0.4,2,1.4,2c0.5,0,0.8,0,1.1-0.1l0.1,1.5c-0.4,0.1-1,0.3-1.7,0.3
		c-0.9,0-1.6-0.3-2.1-0.8c-0.5-0.6-0.7-1.5-0.7-2.8v-5.7h-1.6v-1.5h1.6v-2L261.7,324.3z"/>
	<path class="st0" d="M271.4,337.4v-9.1h-1.5v-1.5h1.5v-0.5c0-1.5,0.3-2.8,1.2-3.7c0.7-0.7,1.7-1,2.6-1c0.7,0,1.3,0.2,1.6,0.3
		l-0.3,1.5c-0.3-0.1-0.7-0.2-1.2-0.2c-1.6,0-2,1.4-2,3v0.6h2.5v1.5h-2.5v9.1L271.4,337.4L271.4,337.4z"/>
	<path class="st0" d="M286.8,332c0,3.9-2.7,5.6-5.2,5.6c-2.8,0-5-2.1-5-5.4c0-3.5,2.3-5.6,5.2-5.6S286.8,328.8,286.8,332z
		 M278.4,332.1c0,2.3,1.3,4,3.2,4c1.8,0,3.2-1.7,3.2-4.1c0-1.8-0.9-4-3.2-4C279.4,328.1,278.4,330.2,278.4,332.1z"/>
	<path class="st0" d="M289.2,330.1c0-1.2,0-2.3-0.1-3.3h1.7l0.1,2.1h0.1c0.5-1.4,1.7-2.3,2.9-2.3c0.2,0,0.3,0,0.5,0v1.8
		c-0.2,0-0.4,0-0.7,0c-1.3,0-2.3,1-2.6,2.4c0,0.3-0.1,0.6-0.1,0.9v5.6h-1.9v-7.2H289.2z"/>
	<path class="st0" d="M301.1,337.4v-9.1h-1.5v-1.5h1.5v-0.5c0-1.5,0.3-2.8,1.2-3.7c0.7-0.7,1.7-1,2.6-1c0.7,0,1.3,0.2,1.6,0.3
		l-0.3,1.5c-0.3-0.1-0.7-0.2-1.2-0.2c-1.6,0-2,1.4-2,3v0.6h2.5v1.5H303v9.1L301.1,337.4L301.1,337.4z"/>
	<path class="st0" d="M307.2,330.1c0-1.2,0-2.3-0.1-3.3h1.7l0.1,2.1h0.1c0.5-1.4,1.7-2.3,2.9-2.3c0.2,0,0.3,0,0.5,0v1.8
		c-0.2,0-0.4,0-0.7,0c-1.3,0-2.3,1-2.6,2.4c0,0.3-0.1,0.6-0.1,0.9v5.6h-1.9v-7.2H307.2z"/>
	<path class="st0" d="M315.2,332.5c0,2.6,1.7,3.7,3.6,3.7c1.4,0,2.2-0.2,2.9-0.5l0.3,1.4c-0.7,0.3-1.8,0.7-3.5,0.7
		c-3.2,0-5.2-2.2-5.2-5.3c0-3.2,1.9-5.7,4.9-5.7c3.5,0,4.3,3,4.3,4.9c0,0.4,0,0.7-0.1,0.9h-7.2V332.5z M320.8,331.1
		c0-1.2-0.5-3.1-2.7-3.1c-2,0-2.8,1.8-2.9,3.1H320.8z"/>
	<path class="st0" d="M326.1,332.5c0,2.6,1.7,3.7,3.6,3.7c1.4,0,2.2-0.2,2.9-0.5l0.3,1.4c-0.7,0.3-1.8,0.7-3.5,0.7
		c-3.2,0-5.2-2.2-5.2-5.3c0-3.2,1.9-5.7,4.9-5.7c3.5,0,4.3,3,4.3,4.9c0,0.4,0,0.7-0.1,0.9h-7.2V332.5z M331.7,331.1
		c0-1.2-0.5-3.1-2.7-3.1c-2,0-2.8,1.8-2.9,3.1H331.7z"/>
	<path class="st0" d="M335.2,336.2c0-0.8,0.5-1.4,1.3-1.4s1.3,0.6,1.3,1.4s-0.5,1.4-1.3,1.4S335.2,337,335.2,336.2z"/>
	<path class="st1" d="M-67.4,348h3.3v6.1l0,0c0.3-0.5,0.8-0.8,1.3-1.1c0.5-0.3,1.1-0.4,1.7-0.4c2.1,0,3.7,1.5,3.7,4.7v6.2h-3.3v-5.8
		c0-1.4-0.5-2.3-1.7-2.3c-0.9,0-1.4,0.6-1.7,1.2c-0.1,0.2-0.1,0.5-0.1,0.7v6.3h-3.3L-67.4,348L-67.4,348z"/>
	<path class="st1" d="M-48.9,350v2.9h2.4v2.4h-2.4v3.8c0,1.3,0.3,1.9,1.3,1.9c0.5,0,0.7,0,1-0.1v2.5c-0.4,0.2-1.2,0.3-2.1,0.3
		c-1.1,0-2-0.4-2.5-0.9c-0.6-0.6-0.9-1.7-0.9-3.2v-4.3h-1.4v-2.4h1.4v-2L-48.9,350z"/>
	<path class="st1" d="M-38.8,350v2.9h2.4v2.4h-2.4v3.8c0,1.3,0.3,1.9,1.3,1.9c0.5,0,0.7,0,1-0.1v2.5c-0.4,0.2-1.2,0.3-2.1,0.3
		c-1.1,0-2-0.4-2.5-0.9c-0.6-0.6-0.9-1.7-0.9-3.2v-4.3h-1.4v-2.4h1.4v-2L-38.8,350z"/>
	<path class="st1" d="M-32.3,356.4c0-1.4,0-2.6-0.1-3.6h2.9l0.2,1.5l0,0c0.8-1.1,2-1.7,3.5-1.7c2.3,0,4.4,2,4.4,5.4
		c0,3.9-2.5,5.7-4.8,5.7c-1.3,0-2.3-0.5-2.8-1.2l0,0v5.3h-3.3C-32.3,367.8-32.3,356.4-32.3,356.4z M-29,358.9c0,0.3,0,0.5,0.1,0.7
		c0.2,0.9,1,1.6,1.9,1.6c1.4,0,2.3-1.2,2.3-3c0-1.7-0.8-3-2.2-3c-0.9,0-1.8,0.7-2,1.7c0,0.2-0.1,0.4-0.1,0.6
		C-29,357.5-29,358.9-29,358.9z"/>
	<path class="st1" d="M-17.4,354.7c0-1.2,0.8-2,1.9-2c1.2,0,1.9,0.8,1.9,2c0,1.1-0.8,2-2,2C-16.6,356.7-17.4,355.8-17.4,354.7z
		 M-17.4,361.7c0-1.2,0.8-2,1.9-2c1.2,0,1.9,0.8,1.9,2c0,1.1-0.8,2-2,2C-16.6,363.7-17.4,362.8-17.4,361.7z"/>
	<path class="st1" d="M-10.3,364.3l4.7-15.8h2.2l-4.7,15.8H-10.3z"/>
	<path class="st1" d="M-0.9,364.3l4.7-15.8H6l-4.7,15.8H-0.9z"/>
	<path class="st1" d="M11.7,352.8l0.9,4.4c0.2,1.1,0.4,2.3,0.6,3.5h0.1c0.2-1.2,0.5-2.4,0.8-3.5l1.1-4.4h2.6l1.1,4.2
		c0.3,1.2,0.6,2.4,0.8,3.6l0,0c0.2-1.2,0.4-2.4,0.6-3.6l0.9-4.2h3.2l-3.3,10.6H18l-1-3.7c-0.3-1-0.5-2-0.7-3.3l0,0
		c-0.2,1.3-0.4,2.3-0.7,3.3l-1.1,3.7h-3.1l-3.1-10.6H11.7z"/>
	<path class="st1" d="M30.8,352.8l0.9,4.4c0.2,1.1,0.4,2.3,0.6,3.5h0.1c0.2-1.2,0.5-2.4,0.8-3.5l1.1-4.4h2.6L38,357
		c0.3,1.2,0.6,2.4,0.8,3.6l0,0c0.2-1.2,0.4-2.4,0.6-3.6l0.9-4.2h3.2l-3.3,10.6h-3.1l-1-3.7c-0.3-1-0.5-2-0.7-3.3l0,0
		c-0.2,1.3-0.4,2.3-0.7,3.3l-1.1,3.7h-3.1l-3.1-10.6H30.8z"/>
	<path class="st1" d="M49.9,352.8l0.9,4.4c0.2,1.1,0.4,2.3,0.6,3.5h0.1c0.2-1.2,0.5-2.4,0.8-3.5l1.1-4.4H56l1.1,4.2
		c0.3,1.2,0.6,2.4,0.8,3.6l0,0c0.2-1.2,0.4-2.4,0.6-3.6l0.9-4.2h3.2l-3.3,10.6h-3.1l-1-3.7c-0.3-1-0.5-2-0.7-3.3l0,0
		c-0.2,1.3-0.4,2.3-0.7,3.3l-1.1,3.7h-3.1l-3.1-10.6H49.9z"/>
	<path class="st1" d="M65,361.7c0-1.2,0.8-2,2-2c1.1,0,1.9,0.8,1.9,2s-0.8,2-2,2C65.8,363.7,65,362.8,65,361.7z"/>
	<path class="st1" d="M73,348h3.3v15.4H73V348z"/>
	<path class="st1" d="M91.7,358c0,3.9-2.8,5.7-5.6,5.7c-3.1,0-5.5-2-5.5-5.5s2.3-5.6,5.7-5.6C89.5,352.6,91.7,354.8,91.7,358z
		 M84,358.1c0,1.8,0.8,3.2,2.2,3.2c1.3,0,2.1-1.3,2.1-3.2c0-1.6-0.6-3.2-2.1-3.2C84.6,354.9,84,356.6,84,358.1z"/>
	<path class="st1" d="M106,361.9c0,2-0.4,3.7-1.6,4.8c-1.2,1-2.7,1.3-4.3,1.3c-1.4,0-2.9-0.3-3.8-0.8l0.7-2.5
		c0.7,0.4,1.8,0.8,3.1,0.8c1.6,0,2.8-0.8,2.8-2.8V362l0,0c-0.6,0.9-1.7,1.4-2.9,1.4c-2.6,0-4.5-2.1-4.5-5.2c0-3.4,2.2-5.6,4.8-5.6
		c1.5,0,2.4,0.6,2.9,1.5l0,0l0.1-1.3h2.9c0,0.7-0.1,1.6-0.1,3.2L106,361.9L106,361.9z M102.7,357.2c0-0.2,0-0.4-0.1-0.6
		c-0.2-0.9-0.9-1.5-1.8-1.5c-1.2,0-2.2,1.1-2.2,3c0,1.6,0.8,2.8,2.2,2.8c0.9,0,1.5-0.6,1.8-1.3c0.1-0.3,0.1-0.6,0.1-0.9V357.2z"/>
	<path class="st1" d="M121.3,358c0,3.9-2.8,5.7-5.6,5.7c-3.1,0-5.5-2-5.5-5.5s2.3-5.6,5.7-5.6C119.2,352.6,121.3,354.8,121.3,358z
		 M113.7,358.1c0,1.8,0.8,3.2,2.2,3.2c1.3,0,2.1-1.3,2.1-3.2c0-1.6-0.6-3.2-2.1-3.2C114.3,354.9,113.7,356.6,113.7,358.1z"/>
	<path class="st1" d="M128.2,359.2c0.1,1.4,1.5,2,3,2c1.1,0,2-0.2,2.9-0.5l0.4,2.2c-1.1,0.5-2.4,0.7-3.8,0.7c-3.6,0-5.7-2.1-5.7-5.4
		c0-2.7,1.7-5.7,5.4-5.7c3.4,0,4.7,2.7,4.7,5.3c0,0.6-0.1,1.1-0.1,1.3h-6.8V359.2z M132.1,356.9c0-0.8-0.3-2.2-1.9-2.2
		c-1.4,0-2,1.3-2,2.2H132.1z"/>
	<path class="st1" d="M139.3,356.4c0-1.4,0-2.6-0.1-3.6h2.9l0.2,1.5l0,0c0.8-1.1,2-1.7,3.5-1.7c2.3,0,4.4,2,4.4,5.4
		c0,3.9-2.5,5.7-4.8,5.7c-1.3,0-2.3-0.5-2.8-1.2l0,0v5.3h-3.3L139.3,356.4L139.3,356.4z M142.6,358.9c0,0.3,0,0.5,0.1,0.7
		c0.2,0.9,1,1.6,1.9,1.6c1.4,0,2.3-1.2,2.3-3c0-1.7-0.8-3-2.2-3c-0.9,0-1.8,0.7-2,1.7c0,0.2-0.1,0.4-0.1,0.6V358.9z"/>
	<path class="st1" d="M154.4,360.6c0.6,0.4,1.9,0.8,2.8,0.8c1,0,1.4-0.3,1.4-0.9s-0.3-0.8-1.5-1.2c-2.2-0.7-3.1-1.9-3-3.2
		c0-2,1.7-3.5,4.3-3.5c1.2,0,2.3,0.3,3,0.6l-0.6,2.3c-0.5-0.3-1.4-0.6-2.3-0.6c-0.8,0-1.3,0.3-1.3,0.8s0.4,0.8,1.7,1.2
		c2,0.7,2.8,1.7,2.9,3.3c0,2-1.5,3.5-4.6,3.5c-1.4,0-2.6-0.3-3.4-0.8L154.4,360.6z"/>
	<path class="st1" d="M165.6,361.7c0-1.2,0.8-2,2-2c1.1,0,1.9,0.8,1.9,2s-0.8,2-2,2C166.4,363.7,165.6,362.8,165.6,361.7z"/>
	<path class="st1" d="M181.6,363.2c-0.6,0.3-1.7,0.5-3,0.5c-3.4,0-5.6-2.1-5.6-5.4c0-3.1,2.1-5.6,6.1-5.6c0.9,0,1.8,0.2,2.5,0.4
		l-0.5,2.5c-0.4-0.2-1-0.3-1.8-0.3c-1.7,0-2.9,1.2-2.8,3c0,1.9,1.3,3,2.9,3c0.8,0,1.4-0.1,1.9-0.3L181.6,363.2z"/>
	<path class="st1" d="M195.9,358c0,3.9-2.8,5.7-5.6,5.7c-3.1,0-5.5-2-5.5-5.5s2.3-5.6,5.7-5.6C193.7,352.6,195.9,354.8,195.9,358z
		 M188.2,358.1c0,1.8,0.8,3.2,2.2,3.2c1.3,0,2.1-1.3,2.1-3.2c0-1.6-0.6-3.2-2.1-3.2C188.8,354.9,188.2,356.6,188.2,358.1z"/>
	<path class="st1" d="M200.1,356.2c0-1.3,0-2.4-0.1-3.4h2.8l0.1,1.4h0.1c0.5-0.7,1.4-1.7,3.2-1.7c1.4,0,2.5,0.7,2.9,1.8l0,0
		c0.4-0.6,0.9-1,1.4-1.3c0.6-0.3,1.2-0.5,2-0.5c2,0,3.6,1.4,3.6,4.6v6.3H213v-5.8c0-1.5-0.5-2.4-1.6-2.4c-0.8,0-1.3,0.5-1.5,1.2
		c-0.1,0.2-0.1,0.6-0.1,0.8v6.2h-3.2v-6c0-1.3-0.5-2.2-1.5-2.2c-0.8,0-1.3,0.7-1.5,1.2c-0.1,0.3-0.1,0.6-0.1,0.8v6.2h-3.2v-7.2
		H200.1z"/>
	<path class="st1" d="M220,364.3l4.6-15.8h2.2l-4.7,15.8H220z"/>
</g>
<g>
	<polygon class="st2" points="36,6.2 37.9,0.8 30.7,0.8 29,6.2 	"/>
	<polygon class="st2" points="24.4,6.2 23.9,0.8 18.4,0.8 15.6,6.2 	"/>
	<polygon class="st2" points="28.3,8.3 25.6,16.8 24.7,8.2 14.7,7.8 10.2,16.3 11.5,7.7 4.5,7.5 2.5,25.6 12,25.6 19.3,10.9 
		20.8,25.6 29.4,25.6 35.2,8.5 	"/>
	<polygon class="st2" points="11.7,6.2 12.5,0.8 5.3,0.8 4.7,6.2 	"/>
	<path class="st2" d="M53.4,0.8H39.7l-1.8,5.3h12.3c3.4,0.1,5.1,2.9,3.9,6.3c-1.2,3.5-4.6,6.1-8.5,6.3c-1,0-1.3,0.2-2.8,0l3.4-9.9
		L37,8.5l-5.7,17h13.6c6.9,0,14.4-5.4,16.7-12.4C64.1,6.3,60.3,0.8,53.4,0.8L53.4,0.8z"/>
	<polygon class="st3" points="87.7,-6.1 92,-6.1 95.2,7.3 95.2,7.3 98.1,-6.1 101.8,-6.1 97.2,11.8 92.9,11.8 89.7,-1.9 89.6,-1.9 
		86.2,11.8 81.8,11.8 77.4,-6.1 81.4,-6.1 84.2,7.3 84.2,7.3 	"/>
	<path class="st3" d="M104.5,6.6c0,1.6,0.2,3.1,2.1,3.1c1.3,0,1.9-0.5,2.3-1.6h3.3c-0.3,3.1-2.7,4.1-5.6,4.1c-4.3,0-6-2.4-6-6.6
		c0-3.7,2.2-6.6,6-6.6c2.3,0,4.3,0.8,5.3,3c0.3,0.7,0.5,1.4,0.6,2.2s0.1,1.6,0.1,2.4L104.5,6.6L104.5,6.6z M108.9,4.1
		c0-1.4-0.4-2.6-2.2-2.6c-1.7,0-2.1,1.3-2.1,2.6H108.9L108.9,4.1z"/>
	<path class="st3" d="M120.8,2.7c0-0.8-0.8-1.2-1.7-1.2c-1,0-1.5,0.3-1.5,1.1c0,2,7.1,0.8,7.1,5.5c0,2.7-3.3,4.1-5.6,4.1
		c-2.9,0-5.4-1.1-5.5-4h3.4c0.1,1,0.9,1.5,2,1.5c1,0,1.8-0.4,1.8-1.4s-1.8-1.4-2.5-1.6c-2.4-0.6-4.6-1.1-4.6-4
		c0-2.6,3.1-3.7,5.3-3.7c2.6,0,4.9,0.9,5,3.7L120.8,2.7L120.8,2.7z"/>
	<path class="st3" d="M126.3-0.7v-2.5l3.7-1.3v3.8h2.8v2.5H130v5.8c0,1.6,0.2,2.1,1.5,2.1c0.4,0,0.8-0.1,1.2-0.1v2.2
		c-0.4,0.2-2.4,0.4-2.9,0.4c-2.9,0-3.5-1.5-3.5-4.2V1.8H125v-2.5L126.3-0.7L126.3-0.7z"/>
	<path class="st3" d="M137.1,6.6c0,1.6,0.2,3.1,2.1,3.1c1.3,0,1.9-0.5,2.3-1.6h3.3c-0.3,3.1-2.7,4.1-5.6,4.1c-4.3,0-6-2.4-6-6.6
		c0-3.7,2.2-6.6,6-6.6c2.3,0,4.3,0.8,5.3,3c0.3,0.7,0.5,1.4,0.6,2.2s0.1,1.6,0.1,2.4L137.1,6.6L137.1,6.6z M141.4,4.1
		c0-1.4-0.4-2.6-2.2-2.6c-1.7,0-2.1,1.3-2.1,2.6H141.4L141.4,4.1z"/>
	<path class="st3" d="M152.9,2.5c-0.6,0-1.4,0.4-1.8,0.9c-0.4,0.7-0.5,1.4-0.5,2.2v6.2h-3.7v-10c0-0.5-0.1-1.6-0.1-2.5h3.4l0.1,2.3
		l0,0c0.8-2,2.4-2.5,4.2-2.4L152.9,2.5L152.9,2.5z"/>
	<path class="st3" d="M159.2,0.8L159.2,0.8c0.8-1.1,2-1.8,3.9-1.8c1.2,0,3.6,0.9,4.1,2.7c0.2,0.8,0.2,1.6,0.2,2v8.1h-3.7V4.3
		c0-1.3-0.4-2.9-2.2-2.9c-1.2,0-2.2,1-2.2,2.9v7.5h-3.7V-0.7h3.7v1.5H159.2z"/>
	<path class="st3" d="M78.8,15.4h6.1c5.6,0,9.1,2.7,9.1,9c0,6.2-3.5,9-9.1,9h-6.1V15.4L78.8,15.4z M82.6,30.3h2c4.6,0,5.2-3.1,5.2-6
		s-0.7-6-5.2-6h-2V30.3L82.6,30.3z"/>
	<path class="st3" d="M99.5,15.4v3.2h-4v-3.2L99.5,15.4L99.5,15.4z M99.4,20.8v12.5h-3.7V20.8H99.4L99.4,20.8z"/>
	<path class="st3" d="M113.3,32.2c0,2.9-0.6,6.1-6.1,6c-2.8,0-5.7-0.7-5.8-4h3.5c0,1.1,1,1.5,2.1,1.5c2.8,0,2.7-2.6,2.6-4.4l0,0
		c-0.8,1.2-2.1,1.7-3.5,1.7c-3.4,0-5.1-3.2-5.1-6.2c0-3.2,1.8-6.4,5.3-6.4c1.7,0,2.7,0.5,3.3,1.8l0,0v-1.4h3.7V32.2L113.3,32.2z
		 M107.2,30.6c2,0,2.4-2.1,2.4-3.7c0-1.8-0.4-3.9-2.4-3.9s-2.4,2.1-2.4,3.9C104.8,28.5,105.1,30.6,107.2,30.6L107.2,30.6z"/>
	<path class="st3" d="M119.4,15.4v3.2h-4v-3.2L119.4,15.4L119.4,15.4z M119.3,20.8v12.5h-3.7V20.8H119.3L119.3,20.8z"/>
	<path class="st3" d="M122,20.8v-2.5l3.7-1.3v3.8h2.8v2.5h-2.8v5.8c0,1.6,0.2,2.1,1.5,2.1c0.4,0,0.8,0,1.2-0.1v2.2
		c-0.4,0.2-2.4,0.4-2.9,0.4c-2.9,0-3.5-1.5-3.5-4.2v-6.1h-1.5v-2.5h1.5V20.8z"/>
	<path class="st3" d="M129.9,24.4c0-1.6,0.7-2.5,1.7-3.1s2.3-0.8,3.7-0.8c2.5,0,5.3,0.9,5.3,4.7V32c0,0.6,0.1,1,0.2,1.4h-3.3
		c-0.1-0.6-0.1-1.1-0.1-1.7l0,0c-0.8,1.4-2.1,2-3.8,2c-2.3,0-4.1-1.3-4.1-3.8c0-0.9,0.4-3,2.7-3.9c1.5-0.6,3.4-0.7,4.9-0.7v-1.2
		c0-0.5-0.4-1.5-1.7-1.5s-1.7,1.2-1.7,1.8H129.9L129.9,24.4z M132.9,29.4c0,1,0.8,1.8,1.8,1.8c2.1,0,2.1-2.3,2.1-3.7
		C135.6,27.4,132.9,27.4,132.9,29.4L132.9,29.4z"/>
	<polygon class="st3" points="146.6,15.4 146.6,33.3 142.9,33.3 142.9,15.4 	"/>
	<path class="st3" d="M148.5,17.5c0-1.5,1.2-2.7,2.7-2.7s2.7,1.2,2.7,2.7s-1.2,2.7-2.7,2.7S148.5,19,148.5,17.5L148.5,17.5z
		 M153.4,17.5c0-1.2-1-2.2-2.2-2.2s-2.2,1-2.2,2.2s1,2.2,2.2,2.2S153.4,18.7,153.4,17.5L153.4,17.5z M150.6,17.6V19h-0.5v-3.2h1
		c0.6,0,1.2,0.2,1.2,0.9c0,0.4-0.2,0.7-0.6,0.7l0,0c0.4,0.1,0.5,0.3,0.5,0.6c0,0.3,0.1,0.6,0.2,0.9h-0.6c0-0.2-0.1-0.4-0.1-0.6
		c0-0.3,0-0.5-0.2-0.7c-0.1-0.1-0.3-0.1-0.5-0.1h-0.4V17.6z M151.2,17.2c0.5,0,0.6-0.2,0.6-0.5c0-0.2-0.1-0.4-0.5-0.4h-0.6v0.8h0.5
		V17.2z"/>
</g>
</svg>
